<svg width="152" height="31" viewBox="0 0 152 31" fill="none" xmlns="http://www.w3.org/2000/svg">
<path d="M22.4257 26.5714C22.4257 25.1513 23.4849 24 24.7915 24H32.0203C33.3269 24 34.3861 25.1513 34.3861 26.5714C34.3861 26.8081 34.2096 27 33.9918 27H22.82C22.6023 27 22.4257 26.8081 22.4257 26.5714Z" fill="url(#paint0_linear_318_2645)"/>
<path d="M22.4257 26.5714C22.4257 25.1513 23.4849 24 24.7915 24H32.0203C33.3269 24 34.3861 25.1513 34.3861 26.5714C34.3861 26.8081 34.2096 27 33.9918 27H22.82C22.6023 27 22.4257 26.8081 22.4257 26.5714Z" fill="url(#paint1_radial_318_2645)" fill-opacity="0.25"/>
<path d="M46.3474 24H40.3672V22.6736H41.1877L41.4173 22.6472L41.6364 22.572L41.8392 22.4494L42.0175 22.2846L42.1632 22.0842L42.2716 21.8547L42.3381 21.6055L42.3602 21.3471V12.9902H40.3672V11.9288L40.8357 11.9038L41.3008 11.8273L41.7565 11.702L42.2005 11.5293L42.6271 11.3078L43.0339 11.0428L43.4161 10.7342H44.3544V21.3471L44.3765 21.6055L44.443 21.8547L44.5513 22.0842L44.697 22.2846L44.8754 22.4494L45.0782 22.572L45.2973 22.6472L45.5269 22.6736H46.3474V24Z" fill="#1D85DD"/>
<path d="M44.5887 6.09147L44.5665 5.81458L44.5036 5.54692L44.3999 5.29508L44.2588 5.06829L44.0863 4.87183L43.8847 4.7136L43.6621 4.59625L43.4255 4.52373L43.1819 4.5L42.9372 4.52373L42.7006 4.59625L42.4779 4.7136L42.2775 4.87183L42.1038 5.06829L41.9628 5.29508L41.8591 5.54692L41.7961 5.81458L41.774 6.09147L41.7961 6.36836L41.8591 6.63603L41.9628 6.88787L42.1038 7.11465L42.2775 7.31112L42.4779 7.47066L42.7006 7.58801L42.9372 7.65921L43.1819 7.68294L43.4255 7.65921L43.6621 7.58801L43.8847 7.47066L44.0863 7.31112L44.2588 7.11465L44.3999 6.88787L44.5036 6.63603L44.5665 6.36836L44.5887 6.09147Z" fill="#1D85DD"/>
<path d="M46.3474 24H40.3672V22.6736H41.1877L41.4173 22.6472L41.6364 22.572L41.8392 22.4494L42.0175 22.2846L42.1632 22.0842L42.2716 21.8547L42.3381 21.6055L42.3602 21.3471V12.9902H40.3672V11.9288L40.8357 11.9038L41.3008 11.8273L41.7565 11.702L42.2005 11.5293L42.6271 11.3078L43.0339 11.0428L43.4161 10.7342H44.3544V21.3471L44.3765 21.6055L44.443 21.8547L44.5513 22.0842L44.697 22.2846L44.8754 22.4494L45.0782 22.572L45.2973 22.6472L45.5269 22.6736H46.3474V24Z" stroke="#1D85DD" stroke-width="0.378125"/>
<path d="M44.5887 6.09147L44.5665 5.81458L44.5036 5.54692L44.3999 5.29508L44.2588 5.06829L44.0863 4.87183L43.8847 4.7136L43.6621 4.59625L43.4255 4.52373L43.1819 4.5L42.9372 4.52373L42.7006 4.59625L42.4779 4.7136L42.2775 4.87183L42.1038 5.06829L41.9628 5.29508L41.8591 5.54692L41.7961 5.81458L41.774 6.09147L41.7961 6.36836L41.8591 6.63603L41.9628 6.88787L42.1038 7.11465L42.2775 7.31112L42.4779 7.47066L42.7006 7.58801L42.9372 7.65921L43.1819 7.68294L43.4255 7.65921L43.6621 7.58801L43.8847 7.47066L44.0863 7.31112L44.2588 7.11465L44.3999 6.88787L44.5036 6.63603L44.5665 6.36836L44.5887 6.09147Z" stroke="#1D85DD" stroke-width="0.378125"/>
<path d="M72.4744 12.2551L71.8944 12.2792L71.3183 12.3517L70.7501 12.4725L70.1938 12.6402L69.6533 12.8535L69.1313 13.1125L68.6316 13.4131L68.1584 13.7539L67.7141 14.1336L67.3015 14.5496V21.3003L67.3279 21.5633L67.403 21.8169L67.5256 22.0503L67.6904 22.2543L67.8908 22.422L68.1201 22.5468L68.3693 22.6233L68.6277 22.6501H69.5571V24H62.793V22.6501H63.721L63.9794 22.6233L64.2286 22.5468L64.458 22.422L64.6583 22.2543L64.8231 22.0503L64.9457 21.8169L65.0222 21.5633L65.0472 21.3003V12.7958H62.793V11.7157L63.3229 11.6902L63.8489 11.6124L64.3644 11.4849L64.8653 11.3091L65.3491 11.0837L65.8079 10.814L66.2403 10.5H67.3015V13.1997L67.6996 12.7569L68.1307 12.3463L68.5921 11.972L69.0812 11.6365L69.5953 11.34L70.1305 11.0877L70.6829 10.8771L71.2511 10.7134L71.8298 10.5953L72.4151 10.5242L73.0044 10.5L73.4499 10.5255L73.8903 10.602L74.3187 10.7281L74.7313 10.9012L75.1215 11.1213L75.4854 11.3843L75.8176 11.6862L76.1155 12.0256L76.3739 12.396L76.5901 12.7932L76.7601 13.2131L76.8841 13.6492L76.9579 14.0961L76.9829 14.5496V21.3003L77.0093 21.5633L77.0844 21.8169L77.207 22.0503L77.3718 22.2543L77.5735 22.422L77.8016 22.5468L78.0508 22.6233L78.3091 22.6501H79.2385V24H72.4744V22.6501H73.4025L73.6609 22.6233L73.91 22.5468L74.1394 22.422L74.3411 22.2543L74.5059 22.0503L74.6285 21.8169L74.7036 21.5633L74.7287 21.3003V14.5496L74.7063 14.2235L74.6377 13.9042L74.5257 13.5969L74.3714 13.3098L74.1776 13.0468L73.9509 12.816L73.6938 12.6201L73.4104 12.4631L73.1098 12.3477L72.7948 12.2792L72.4744 12.2551Z" fill="#1D85DD" stroke="#1D85DD" stroke-width="0.378125"/>
<path d="M83.5073 20.3525L83.6745 20.7445L83.8862 21.111L84.1409 21.4493L84.4335 21.7527L84.7589 22.0185L85.1142 22.2413L85.4918 22.4172L85.8889 22.5461L86.2978 22.6226L86.7133 22.6495L87.2319 22.6266L87.748 22.5582L88.2562 22.4454L88.7539 22.2883L89.236 22.0883L89.6998 21.848L90.1427 21.5674L90.5594 21.2493L90.95 20.8948L91.3093 20.5082L91.6346 20.092L92.6928 20.8935L92.3322 21.358L91.9364 21.793L91.5092 22.1944L91.0519 22.5609L90.5699 22.8898L90.063 23.1784L89.5365 23.4268L88.993 23.6308L88.4352 23.7919L87.8669 23.9074L87.292 23.9758L86.7133 24L86.1933 23.9758L85.6773 23.9033L85.1691 23.7839L84.6739 23.6174L84.1958 23.4066L83.7372 23.1529L83.3035 22.8575L82.8972 22.5219L82.5222 22.1514L82.18 21.7473L81.8756 21.3137L81.6103 20.8532L81.3451 20.2894L81.127 19.7054L80.9558 19.1053L80.8317 18.4931L80.7572 17.8716L80.7324 17.246L80.7572 16.6217L80.8317 16.0002L80.9558 15.388L81.127 14.7879L81.3451 14.2039L81.6103 13.6401L81.8886 13.1595L82.2087 12.7097L82.5693 12.2909L82.9651 11.9096L83.3962 11.5686L83.8548 11.2706L84.3395 11.0169L84.8451 10.8128L85.3663 10.6571L85.9007 10.5524L86.4415 10.5H86.985L87.5259 10.5524L88.0589 10.6571L88.5815 10.8128L89.0871 11.0169L89.5704 11.2706L90.0303 11.5686L90.4601 11.9096L90.8573 12.2909L91.2165 12.7097L91.5379 13.1595L91.8149 13.6401L91.8972 13.8535L91.9312 14.0804L91.9142 14.3086L91.8463 14.5274L91.7339 14.7248L91.5797 14.8913L91.3942 15.0188L91.1852 15.0993L90.9631 15.1289L90.741 15.1074L90.5294 15.0349L90.3386 14.9154L90.1805 14.7543L90.0604 14.561L89.9859 14.3449L89.8461 13.9529L89.6619 13.581L89.4359 13.2346L89.172 12.9178L88.8728 12.6345L88.5436 12.3916L88.1895 12.1888L87.8133 12.0318L87.4214 11.9203L87.0203 11.8586L86.614 11.8452L86.2103 11.8828L85.8131 11.9687L85.4277 12.1016L85.0619 12.2815L84.7184 12.5043L84.4035 12.7675L84.1213 13.0668L83.8757 13.3984L83.6693 13.7582L83.5073 14.1408L83.3139 14.7422L83.1624 15.3571L83.054 15.9827L82.9886 16.6123L82.9664 17.246L82.9886 17.881L83.054 18.5106L83.1624 19.1348L83.3139 19.751L83.5073 20.3525Z" fill="#1D85DD" stroke="#1D85DD" stroke-width="0.378125"/>
<path fill-rule="evenodd" clip-rule="evenodd" d="M59.9468 17.9212L60.1911 17.8984L60.4262 17.8286L60.6444 17.7158L60.8391 17.5628L61.0024 17.3762L61.1291 17.1614L61.2153 16.9265L61.2571 16.6781L61.2545 16.4271L61.1709 15.8458L61.0455 15.2739L60.877 14.7141L60.6679 14.1677L60.4197 13.6401L60.1414 13.1595L59.8214 12.7097L59.4608 12.2909L59.0636 11.9096L58.6338 11.5686L58.174 11.2706L57.6906 11.0169L57.185 10.8128L56.6624 10.6571L56.1294 10.5524L55.5885 10.5H55.0451L54.5042 10.5524L53.9699 10.6571L53.4486 10.8128L52.943 11.0169L52.4583 11.2706L51.9998 11.5686L51.5699 11.9096L51.1728 12.2909L50.8122 12.7097L50.4921 13.1595L50.2139 13.6401L49.95 14.2039L49.7305 14.7879L49.5593 15.388L49.4352 16.0002L49.3608 16.6217L49.3359 17.246L49.3608 17.8716L49.4352 18.4931L49.5593 19.1053L49.7305 19.7054L49.95 20.2894L50.2139 20.8532L50.4791 21.3137L50.7835 21.7473L51.1258 22.1514L51.5007 22.5219L51.907 22.8575L52.3407 23.1529L52.7993 23.4066L53.2774 23.6174L53.7726 23.7839L54.2808 23.9033L54.7968 23.9758L55.3168 24L55.8955 23.9758L56.4704 23.9074L57.0387 23.7919L57.5965 23.6308L58.14 23.4268L58.6665 23.1784L59.1734 22.8898L59.6568 22.5609L60.1127 22.1944L60.5399 21.793L60.9358 21.358L61.2963 20.8935L60.2381 20.092L59.9128 20.5082L59.5536 20.8948L59.1642 21.2493L58.7462 21.5674L58.3033 21.848L57.8395 22.0883L57.3574 22.2883L56.8597 22.4454L56.3515 22.5582L55.8354 22.6266L55.3168 22.6495L54.9013 22.6226L54.4924 22.5461L54.0966 22.4172L53.7177 22.2413L53.3624 22.0185L53.0371 21.7527L52.7444 21.4493L52.4897 21.111L52.278 20.7445L52.1108 20.3525L51.9201 19.7604L51.7711 19.1563L51.6627 18.5415L51.5961 17.9212H59.9468ZM51.9201 14.7328L52.1108 14.1408L52.278 13.7488L52.4897 13.3823L52.7444 13.044L53.0371 12.7406L53.3624 12.4748L53.7177 12.2519L54.0966 12.0761L54.4924 11.9472L54.9013 11.8707L55.3168 11.8438L55.7309 11.8707L56.1398 11.9472L56.537 12.0761L56.9159 12.2519L57.2699 12.4748L57.5965 12.7406L57.8892 13.044L58.1426 13.3823L58.3556 13.7488L58.5228 14.1408L58.7122 14.7328L58.8625 15.337L58.9709 15.9518L59.0375 16.5707H51.5961L51.6627 15.9518L51.7711 15.337L51.9201 14.7328Z" fill="#1D85DD" stroke="#1D85DD" stroke-width="0.378125"/>
<path fill-rule="evenodd" clip-rule="evenodd" d="M104.798 17.9212L105.043 17.8984L105.278 17.8286L105.496 17.7158L105.691 17.5628L105.854 17.3762L105.981 17.1614L106.067 16.9265L106.109 16.6781L106.106 16.4271L106.022 15.8458L105.897 15.2739L105.729 14.7141L105.52 14.1677L105.271 13.6401L104.993 13.1595L104.673 12.7097L104.312 12.2909L103.915 11.9096L103.485 11.5686L103.026 11.2706L102.542 11.0169L102.037 10.8128L101.514 10.6571L100.981 10.5524L100.44 10.5H99.8966L99.3558 10.5524L98.8214 10.6571L98.3002 10.8128L97.7946 11.0169L97.3099 11.2706L96.8513 11.5686L96.4215 11.9096L96.0243 12.2909L95.6638 12.7097L95.3437 13.1595L95.0654 13.6401L94.8015 14.2039L94.582 14.7879L94.4109 15.388L94.2868 16.0002L94.2123 16.6217L94.1875 17.246L94.2123 17.8716L94.2868 18.4931L94.4109 19.1053L94.582 19.7054L94.8015 20.2894L95.0654 20.8532L95.3306 21.3137L95.635 21.7473L95.9773 22.1514L96.3523 22.5219L96.7586 22.8575L97.1923 23.1529L97.6509 23.4066L98.129 23.6174L98.6241 23.7839L99.1323 23.9033L99.6484 23.9758L100.168 24L100.747 23.9758L101.322 23.9074L101.89 23.7919L102.448 23.6308L102.992 23.4268L103.518 23.1784L104.025 22.8898L104.508 22.5609L104.964 22.1944L105.391 21.793L105.787 21.358L106.148 20.8935L105.09 20.092L104.764 20.5082L104.405 20.8948L104.016 21.2493L103.598 21.5674L103.155 21.848L102.691 22.0883L102.209 22.2883L101.711 22.4454L101.203 22.5582L100.687 22.6266L100.168 22.6495L99.7529 22.6226L99.344 22.5461L98.9481 22.4172L98.5693 22.2413L98.2139 22.0185L97.8886 21.7527L97.596 21.4493L97.3412 21.111L97.1296 20.7445L96.9624 20.3525L96.7716 19.7604L96.6227 19.1563L96.5143 18.5415L96.4476 17.9212H104.798ZM96.7716 14.7328L96.9624 14.1408L97.1296 13.7488L97.3412 13.3823L97.596 13.044L97.8886 12.7406L98.2139 12.4748L98.5693 12.2519L98.9481 12.0761L99.344 11.9472L99.7529 11.8707L100.168 11.8438L100.582 11.8707L100.991 11.9472L101.389 12.0761L101.767 12.2519L102.121 12.4748L102.448 12.7406L102.741 13.044L102.994 13.3823L103.207 13.7488L103.374 14.1408L103.564 14.7328L103.714 15.337L103.822 15.9518L103.889 16.5707H96.4476L96.5143 15.9518L96.6227 15.337L96.7716 14.7328Z" fill="#1D85DD" stroke="#1D85DD" stroke-width="0.378125"/>
<path d="M5.58339 5.75727L5.15004 5.99115L4.74394 6.26768L4.37192 6.58296L4.03668 6.93314L3.74233 7.31691L3.49431 7.72653L3.29263 8.1594L3.14 8.61036L3.03916 9.07425L2.99146 9.54589L2.99555 10.0188L3.05415 10.4892L3.16453 10.9505L3.32533 11.3988L3.53519 11.8278L3.79275 12.2336L4.09528 12.6109L4.43733 12.9559L4.81617 13.2634L5.22635 13.5322L5.66516 13.7583L6.12712 13.9379L14.0542 16.5714L14.403 16.7135L14.7274 16.8996L15.0204 17.1257L15.2793 17.388L15.496 17.6826L15.669 18.0018L15.7944 18.3416L15.868 18.6931L15.8898 19.0523L15.8598 19.4102L15.778 19.7604L15.6459 20.0977L15.466 20.413L15.2425 20.7037L14.9795 20.9608L14.6797 21.1818L14.3526 21.3614L13.8116 21.5862L13.2543 21.7671L12.6819 21.9054L12.1014 21.9972L11.5127 22.0437H10.9226L10.3353 21.9984L9.75338 21.9067L9.18102 21.771L8.62366 21.5901L8.08266 21.3666L7.56345 21.1004L7.06878 20.7954L6.60272 20.453L6.16801 20.0757L5.76736 19.6648L5.40351 19.2242L5.30539 18.9993L5.16094 18.7978L4.97425 18.6285L4.75485 18.5006L4.51228 18.4192L4.25745 18.3856L3.99989 18.4037L3.75323 18.4721L3.52702 18.5884L3.32942 18.7461L3.17134 18.9386L3.0596 19.1583L2.99827 19.3947L2.9901 19.639L3.03507 19.8793L3.13182 20.1054L3.44116 20.6055L3.79548 21.0771L4.18931 21.5203L4.6213 21.93L5.08735 22.3034L5.58612 22.6381L6.1135 22.9327L6.66404 23.1834L7.23503 23.3888L8.02406 23.6111L8.82671 23.7842L9.64027 23.9057L10.4593 23.978L11.2824 24L12.1055 23.969L12.9245 23.8889L13.7367 23.7571L14.5366 23.5762L15.3229 23.3462L16.0928 23.0671L16.841 22.7414L17.2757 22.5088L17.6804 22.2323L18.0538 21.917L18.3877 21.5656L18.682 21.1831L18.9314 20.7735L19.1331 20.3393L19.2844 19.8883L19.3852 19.4257L19.4343 18.9541L19.4288 18.4812L19.3716 18.0108L19.2612 17.5482L19.099 17.1012L18.8892 16.6722L18.6316 16.2664L18.3305 15.8891L17.9884 15.5441L17.6096 15.2353L17.198 14.9665L16.7592 14.7417L16.2973 14.5621L8.37019 11.9286L8.02133 11.7865L7.69836 11.6004L7.40401 11.3743L7.14645 11.1107L6.92842 10.8174L6.75535 10.4969L6.63134 10.1584L6.55639 9.80561L6.53458 9.44768L6.56456 9.08975L6.64633 8.73829L6.77851 8.40233L6.9584 8.08575L7.18188 7.7963L7.44626 7.53916L7.7447 7.3182L8.07312 7.13859L8.61276 6.91376L9.17012 6.73285L9.74247 6.59459L10.3244 6.50285L10.9117 6.45633L11.5018 6.45504L12.0891 6.50156L12.671 6.59201L13.2434 6.72898L13.8007 6.90988L14.3417 7.13342L14.8609 7.39832L15.3556 7.70327L15.8217 8.04698L16.2564 8.42429L16.657 8.8352L17.0209 9.27453L17.119 9.50066L17.2648 9.70224L17.4501 9.87022L17.6695 9.99944L17.9121 10.0808L18.1669 10.1144L18.4245 10.0951L18.6711 10.0279L18.8987 9.91157L19.095 9.75392L19.253 9.56139L19.3648 9.34173L19.4261 9.10397L19.4356 8.86104L19.3893 8.6207L19.2926 8.39328L18.9832 7.89451L18.6303 7.42158L18.2351 6.97966L17.8031 6.57004L17.337 6.19661L16.8383 5.86065L16.3122 5.56732L15.7617 5.31664L15.1907 5.11119L14.4003 4.88894L13.5977 4.71579L12.7841 4.59304L11.9651 4.52197L11.142 4.5L10.3189 4.52972L9.49991 4.61113L8.68908 4.74163L7.88778 4.92383L7.10148 5.15383L6.33154 5.43165L5.58339 5.75727Z" fill="#1D85DD" stroke="#1D85DD" stroke-width="0.378125"/>
<path d="M29.9004 13.6442L30.5295 14.87C30.5647 14.9385 30.6525 14.9597 30.7151 14.9149L32.8022 13.4191C32.8529 13.3827 32.8694 13.3146 32.8409 13.2591L32.1946 12L29.9004 13.6442Z" fill="url(#paint2_linear_318_2645)"/>
<path d="M27.4069 3.04697C27.4616 3.01979 27.5279 3.03578 27.5643 3.0849L28.4051 4.22159L24.8253 6L24.0096 4.89938C23.9628 4.83632 23.9845 4.74635 24.0548 4.71144L27.4069 3.04697Z" fill="url(#paint3_linear_318_2645)"/>
<path d="M31.1463 16.5H30.8971C30.8971 16.5 30.8971 16.5 30.8971 16.5H30.3988C30.3988 16.5 30.3987 16.5 30.3987 16.5H30.1496C30.1496 16.5 30.1496 16.5 30.1495 16.5H29.9005C29.9004 16.5 29.9004 16.5 29.9004 16.5001H31.3954C31.3954 16.5 31.3954 16.5 31.3954 16.5H31.1463C31.1463 16.5 31.1463 16.5 31.1463 16.5Z" fill="url(#paint4_linear_318_2645)"/>
<path d="M34.0195 17.91L34.2611 17.6887L34.3857 17.385L34.3706 17.0587L34.2196 16.77L33.9591 16.5712L33.6381 16.5L33.3172 16.5712L33.0567 16.77L32.9057 17.0587L32.8906 17.385L33.0152 17.6887L33.2568 17.91L33.506 18H33.7703L34.0195 17.91Z" fill="url(#paint5_radial_318_2645)"/>
<path d="M29.9004 19.5H31.3954V19.5001H29.9004V19.5Z" fill="url(#paint6_linear_318_2645)"/>
<path d="M29.9004 19.5001H31.3954L31.0621 19.5H30.2321L29.9004 19.5001Z" fill="url(#paint7_linear_318_2645)"/>
<path d="M29.9004 19.5H31.3954V18H29.9004V19.5Z" fill="url(#paint8_linear_318_2645)"/>
<path d="M29.9004 16.5H31.3954H29.9004ZM31.3954 16.5L31.0621 16.5001L31.3954 16.5ZM31.0621 16.5001H30.2321H31.0621ZM30.2321 16.5001L29.9004 16.5L30.2321 16.5001Z" fill="#73818C"/>
<path d="M29.9004 16.5H31.3954L31.0621 16.5001H30.2321L29.9004 16.5Z" fill="#73818C"/>
<path d="M31.3965 19.5H32.8915V19.5001H31.3965V19.5Z" fill="url(#paint9_linear_318_2645)"/>
<path d="M32.8915 19.5001H31.3965L31.7702 19.5H32.5178L32.8915 19.5001Z" fill="url(#paint10_linear_318_2645)"/>
<path d="M33.2625 18L32.8906 19.5H34.3857L34.0138 18L33.7683 18.0597H33.508L33.2625 18Z" fill="url(#paint11_linear_318_2645)"/>
<path d="M39.1205 16.5H39.3696C39.3696 16.5 39.3697 16.5 39.3697 16.5H39.868C39.868 16.5 39.868 16.5 39.868 16.5H40.1172C40.1172 16.5 40.1172 16.5 40.1172 16.5H40.3663C40.3663 16.5 40.3663 16.5 40.3663 16.5001H38.8713C38.8713 16.5 38.8713 16.5 38.8714 16.5H39.1204C39.1205 16.5 39.1205 16.5 39.1205 16.5Z" fill="url(#paint12_linear_318_2645)"/>
<path d="M37.7432 17.91L37.5015 17.6887L37.377 17.385L37.3883 17.0587L37.5431 16.77L37.8036 16.5712L38.1245 16.5L38.4454 16.5712L38.7059 16.77L38.8569 17.0587L38.872 17.385L38.7474 17.6887L38.502 17.91L38.2566 18H37.9923L37.7432 17.91Z" fill="url(#paint13_radial_318_2645)"/>
<path d="M40.3663 19.5H38.8713V19.5001H40.3663V19.5Z" fill="url(#paint14_linear_318_2645)"/>
<path d="M40.3663 19.5001H38.8713L39.203 19.5H40.033L40.3663 19.5001Z" fill="url(#paint15_linear_318_2645)"/>
<path d="M40.3663 19.5H38.8713V18H40.3663V19.5Z" fill="url(#paint16_linear_318_2645)"/>
<path d="M40.3663 16.5H38.8713L39.203 16.5001H40.033L40.3663 16.5Z" fill="#394046"/>
<path d="M38.872 19.5H37.377V19.5001H38.872V19.5Z" fill="url(#paint17_linear_318_2645)"/>
<path d="M38.872 19.5001H37.377L37.7521 19.5H38.4987L38.872 19.5001Z" fill="url(#paint18_linear_318_2645)"/>
<path d="M38.4964 18L38.872 19.5H37.377L37.7489 18L37.9943 18.0597H38.2546L38.4964 18Z" fill="url(#paint19_linear_318_2645)"/>
<path d="M26.2667 25.313L25.6195 25.1254L24.9866 24.886L24.3722 24.5963L23.7814 24.2562L23.2155 23.8712L22.6799 23.4401L22.1757 22.967L21.707 22.4547L21.2763 21.906L20.8864 21.3237L20.5385 20.7106L20.2352 20.0724L19.9792 19.4103L19.7704 18.73L19.6103 18.0358L19.5013 17.3289L19.4435 16.6164L19.4356 15.8998L19.479 15.1859L19.5735 14.4776L19.7179 13.7778L19.9122 13.0933L20.1551 12.4256L20.444 11.7804L20.7788 11.1589L21.1569 10.5682L21.5757 10.0083L22.0339 9.48482L22.5276 9.00051L23.054 8.5568L23.612 8.15787L24.1963 7.80514L24.8028 7.5L24.9827 7.81494L25.9411 9.50021L26.1236 9.82075L25.5985 10.0503L25.0956 10.3289L24.619 10.6536L24.1713 11.0231L23.7551 11.4332L23.377 11.8826L23.037 12.3655L22.7389 12.8792L22.4869 13.4195L22.2794 13.9821L22.1206 14.5616L22.0116 15.1537L21.9525 15.7542L21.9446 16.3575L21.9879 16.9608L22.0812 17.5557L22.223 18.1407L22.4146 18.709L22.6536 19.2563L22.9372 19.7784L23.2641 20.2725L23.6304 20.733L24.0348 21.1558L24.472 21.5393L24.9407 21.878L25.4357 22.172L25.9543 22.4169L26.4899 22.6101L27.04 22.7528L27.6007 22.8424L28.1665 22.8774L28.7324 22.8578L29.2943 22.785L29.8484 22.6577L30.3893 22.4785L30.9131 22.2489L31.4147 21.9704L31.8913 21.6443L32.339 21.2733L32.7538 20.8618H35.8812L35.532 21.4539L35.1407 22.0166L34.7127 22.5471L34.2479 23.0426L33.7517 23.4989L33.2225 23.916L32.6672 24.2884L32.0869 24.6159L31.4856 24.8972L30.8659 25.1296L30.233 25.313C28.8269 25.5623 27.8422 25.5623 26.2667 25.313Z" fill="#1D85DD"/>
<path d="M26.2667 25.313L25.6195 25.1254L24.9866 24.886L24.3722 24.5963L23.7814 24.2562L23.2155 23.8712L22.6799 23.4401L22.1757 22.967L21.707 22.4547L21.2763 21.906L20.8864 21.3237L20.5385 20.7106L20.2352 20.0724L19.9792 19.4103L19.7704 18.73L19.6103 18.0358L19.5013 17.3289L19.4435 16.6164L19.4356 15.8998L19.479 15.1859L19.5735 14.4776L19.7179 13.7778L19.9122 13.0933L20.1551 12.4256L20.444 11.7804L20.7788 11.1589L21.1569 10.5682L21.5757 10.0083L22.0339 9.48482L22.5276 9.00051L23.054 8.5568L23.612 8.15787L24.1963 7.80514L24.8028 7.5L24.9827 7.81494L25.9411 9.50021L26.1236 9.82075L25.5985 10.0503L25.0956 10.3289L24.619 10.6536L24.1713 11.0231L23.7551 11.4332L23.377 11.8826L23.037 12.3655L22.7389 12.8792L22.4869 13.4195L22.2794 13.9821L22.1206 14.5616L22.0116 15.1537L21.9525 15.7542L21.9446 16.3575L21.9879 16.9608L22.0812 17.5557L22.223 18.1407L22.4146 18.709L22.6536 19.2563L22.9372 19.7784L23.2641 20.2725L23.6304 20.733L24.0348 21.1558L24.472 21.5393L24.9407 21.878L25.4357 22.172L25.9543 22.4169L26.4899 22.6101L27.04 22.7528L27.6007 22.8424L28.1665 22.8774L28.7324 22.8578L29.2943 22.785L29.8484 22.6577L30.3893 22.4785L30.9131 22.2489L31.4147 21.9704L31.8913 21.6443L32.339 21.2733L32.7538 20.8618H35.8812L35.532 21.4539L35.1407 22.0166L34.7127 22.5471L34.2479 23.0426L33.7517 23.4989L33.2225 23.916L32.6672 24.2884L32.0869 24.6159L31.4856 24.8972L30.8659 25.1296L30.233 25.313C28.8269 25.5623 27.8422 25.5623 26.2667 25.313Z" fill="url(#paint20_radial_318_2645)" fill-opacity="0.25"/>
<path d="M26.2667 25.313L25.6195 25.1254L24.9866 24.886L24.3722 24.5963L23.7814 24.2562L23.2155 23.8712L22.6799 23.4401L22.1757 22.967L21.707 22.4547L21.2763 21.906L20.8864 21.3237L20.5385 20.7106L20.2352 20.0724L19.9792 19.4103L19.7704 18.73L19.6103 18.0358L19.5013 17.3289L19.4435 16.6164L19.4356 15.8998L19.479 15.1859L19.5735 14.4776L19.7179 13.7778L19.9122 13.0933L20.1551 12.4256L20.444 11.7804L20.7788 11.1589L21.1569 10.5682L21.5757 10.0083L22.0339 9.48482L22.5276 9.00051L23.054 8.5568L23.612 8.15787L24.1963 7.80514L24.8028 7.5L24.9827 7.81494L25.9411 9.50021L26.1236 9.82075L25.5985 10.0503L25.0956 10.3289L24.619 10.6536L24.1713 11.0231L23.7551 11.4332L23.377 11.8826L23.037 12.3655L22.7389 12.8792L22.4869 13.4195L22.2794 13.9821L22.1206 14.5616L22.0116 15.1537L21.9525 15.7542L21.9446 16.3575L21.9879 16.9608L22.0812 17.5557L22.223 18.1407L22.4146 18.709L22.6536 19.2563L22.9372 19.7784L23.2641 20.2725L23.6304 20.733L24.0348 21.1558L24.472 21.5393L24.9407 21.878L25.4357 22.172L25.9543 22.4169L26.4899 22.6101L27.04 22.7528L27.6007 22.8424L28.1665 22.8774L28.7324 22.8578L29.2943 22.785L29.8484 22.6577L30.3893 22.4785L30.9131 22.2489L31.4147 21.9704L31.8913 21.6443L32.339 21.2733L32.7538 20.8618H35.8812L35.532 21.4539L35.1407 22.0166L34.7127 22.5471L34.2479 23.0426L33.7517 23.4989L33.2225 23.916L32.6672 24.2884L32.0869 24.6159L31.4856 24.8972L30.8659 25.1296L30.233 25.313C28.8269 25.5623 27.8422 25.5623 26.2667 25.313Z" stroke="#1D85DD" stroke-width="0.378125"/>
<path d="M26.2667 25.313L25.6195 25.1254L24.9866 24.886L24.3722 24.5963L23.7814 24.2562L23.2155 23.8712L22.6799 23.4401L22.1757 22.967L21.707 22.4547L21.2763 21.906L20.8864 21.3237L20.5385 20.7106L20.2352 20.0724L19.9792 19.4103L19.7704 18.73L19.6103 18.0358L19.5013 17.3289L19.4435 16.6164L19.4356 15.8998L19.479 15.1859L19.5735 14.4776L19.7179 13.7778L19.9122 13.0933L20.1551 12.4256L20.444 11.7804L20.7788 11.1589L21.1569 10.5682L21.5757 10.0083L22.0339 9.48482L22.5276 9.00051L23.054 8.5568L23.612 8.15787L24.1963 7.80514L24.8028 7.5L24.9827 7.81494L25.9411 9.50021L26.1236 9.82075L25.5985 10.0503L25.0956 10.3289L24.619 10.6536L24.1713 11.0231L23.7551 11.4332L23.377 11.8826L23.037 12.3655L22.7389 12.8792L22.4869 13.4195L22.2794 13.9821L22.1206 14.5616L22.0116 15.1537L21.9525 15.7542L21.9446 16.3575L21.9879 16.9608L22.0812 17.5557L22.223 18.1407L22.4146 18.709L22.6536 19.2563L22.9372 19.7784L23.2641 20.2725L23.6304 20.733L24.0348 21.1558L24.472 21.5393L24.9407 21.878L25.4357 22.172L25.9543 22.4169L26.4899 22.6101L27.04 22.7528L27.6007 22.8424L28.1665 22.8774L28.7324 22.8578L29.2943 22.785L29.8484 22.6577L30.3893 22.4785L30.9131 22.2489L31.4147 21.9704L31.8913 21.6443L32.339 21.2733L32.7538 20.8618H35.8812L35.532 21.4539L35.1407 22.0166L34.7127 22.5471L34.2479 23.0426L33.7517 23.4989L33.2225 23.916L32.6672 24.2884L32.0869 24.6159L31.4856 24.8972L30.8659 25.1296L30.233 25.313C28.8269 25.5623 27.8422 25.5623 26.2667 25.313Z" stroke="url(#paint21_radial_318_2645)" stroke-opacity="0.25" stroke-width="0.378125"/>
<path d="M124.016 25.7233C122.473 25.7233 121.139 25.3432 120.015 24.5829C118.909 23.8036 118.061 22.7582 117.471 21.4467C116.899 20.1162 116.613 18.6431 116.613 17.0275C116.613 14.6325 117.194 12.4277 118.357 10.4129C119.519 8.37909 121.005 6.71594 122.816 5.42344C124.645 4.11193 126.512 3.30412 128.418 3L129.075 4.22598C126.846 4.92925 124.969 6.10771 123.444 7.76135C121.92 9.39599 120.882 11.2587 120.329 13.3495C120.805 12.7983 121.463 12.3326 122.301 11.9525C123.14 11.5533 124.111 11.3537 125.217 11.3537C127.198 11.3537 128.713 11.9335 129.761 13.0929C130.828 14.2524 131.362 15.8585 131.362 17.9113C131.362 19.2988 131.066 20.5913 130.476 21.7888C129.904 22.9673 129.056 23.9176 127.932 24.6399C126.827 25.3622 125.521 25.7233 124.016 25.7233ZM124.359 13.1214C123.33 13.1214 122.415 13.359 121.615 13.8342C120.815 14.2904 120.262 14.7846 119.957 15.3168C119.919 15.773 119.9 16.1436 119.9 16.4287C119.843 18.7286 120.148 20.6103 120.815 22.0739C121.482 23.5375 122.606 24.2693 124.188 24.2693C125.064 24.2693 125.807 24.0032 126.417 23.471C127.027 22.9197 127.475 22.207 127.76 21.3326C128.065 20.4583 128.218 19.5364 128.218 18.5671C128.218 16.6853 127.865 15.3073 127.16 14.4329C126.474 13.5586 125.54 13.1214 124.359 13.1214Z" fill="url(#paint22_linear_318_2645)"/>
<path d="M144.426 25.4097H134.936L134.193 24.1267C135.317 21.9979 136.699 19.1848 138.338 15.6874C139.976 12.1711 141.443 8.94931 142.739 6.02218H143.482L145.769 7.24815L138.052 22.0739L136.908 23.8131L144.426 23.4139L144.54 17.8543L146.969 17.6547V23.2714L150.999 23.0718V25.4097H146.969V30H144.426V25.4097Z" fill="url(#paint23_linear_318_2645)"/>
<path d="M124.016 25.7233C122.473 25.7233 121.139 25.3432 120.015 24.5829C118.909 23.8036 118.061 22.7582 117.471 21.4467C116.899 20.1162 116.613 18.6431 116.613 17.0275C116.613 14.6325 117.194 12.4277 118.357 10.4129C119.519 8.37909 121.005 6.71594 122.816 5.42344C124.645 4.11193 126.512 3.30412 128.418 3L129.075 4.22598C126.846 4.92925 124.969 6.10771 123.444 7.76135C121.92 9.39599 120.882 11.2587 120.329 13.3495C120.805 12.7983 121.463 12.3326 122.301 11.9525C123.14 11.5533 124.111 11.3537 125.217 11.3537C127.198 11.3537 128.713 11.9335 129.761 13.0929C130.828 14.2524 131.362 15.8585 131.362 17.9113C131.362 19.2988 131.066 20.5913 130.476 21.7888C129.904 22.9673 129.056 23.9176 127.932 24.6399C126.827 25.3622 125.521 25.7233 124.016 25.7233ZM124.359 13.1214C123.33 13.1214 122.415 13.359 121.615 13.8342C120.815 14.2904 120.262 14.7846 119.957 15.3168C119.919 15.773 119.9 16.1436 119.9 16.4287C119.843 18.7286 120.148 20.6103 120.815 22.0739C121.482 23.5375 122.606 24.2693 124.188 24.2693C125.064 24.2693 125.807 24.0032 126.417 23.471C127.027 22.9197 127.475 22.207 127.76 21.3326C128.065 20.4583 128.218 19.5364 128.218 18.5671C128.218 16.6853 127.865 15.3073 127.16 14.4329C126.474 13.5586 125.54 13.1214 124.359 13.1214Z" stroke="url(#paint24_linear_318_2645)" stroke-width="0.378125"/>
<path d="M144.426 25.4097H134.936L134.193 24.1267C135.317 21.9979 136.699 19.1848 138.338 15.6874C139.976 12.1711 141.443 8.94931 142.739 6.02218H143.482L145.769 7.24815L138.052 22.0739L136.908 23.8131L144.426 23.4139L144.54 17.8543L146.969 17.6547V23.2714L150.999 23.0718V25.4097H146.969V30H144.426V25.4097Z" stroke="url(#paint25_linear_318_2645)" stroke-width="0.378125"/>
<path d="M29.0249 3.06128C29.0836 3.02709 29.1588 3.04551 29.195 3.10294L34.3165 11.2237C34.3546 11.2841 34.335 11.3639 34.2734 11.3999L30.7756 13.4387C30.717 13.4729 30.6418 13.4545 30.6055 13.397L27.8215 8.98003L26.7705 7.31376L25.4854 5.27489C25.4474 5.21455 25.467 5.1347 25.5286 5.09878L29.0249 3.06128Z" fill="url(#paint26_linear_318_2645)"/>
<g filter="url(#filter0_d_318_2645)">
<path d="M29.9004 20.874C29.9004 20.9436 29.9568 21 30.0264 21H41.7347C41.8044 21 41.8608 20.9436 41.8608 20.874V19.626C41.8608 19.5564 41.8044 19.5 41.7347 19.5H30.0264C29.9568 19.5 29.9004 19.5564 29.9004 19.626V20.874Z" fill="url(#paint27_linear_318_2645)"/>
<path d="M29.9004 20.874C29.9004 20.9436 29.9568 21 30.0264 21H41.7347C41.8044 21 41.8608 20.9436 41.8608 20.874V19.626C41.8608 19.5564 41.8044 19.5 41.7347 19.5H30.0264C29.9568 19.5 29.9004 19.5564 29.9004 19.626V20.874Z" fill="url(#paint28_radial_318_2645)" fill-opacity="0.25"/>
<path d="M29.9004 20.874C29.9004 20.9436 29.9568 21 30.0264 21H41.7347C41.8044 21 41.8608 20.9436 41.8608 20.874V19.626C41.8608 19.5564 41.8044 19.5 41.7347 19.5H30.0264C29.9568 19.5 29.9004 19.5564 29.9004 19.626V20.874Z" fill="url(#paint29_radial_318_2645)" fill-opacity="0.25"/>
</g>
<g filter="url(#filter1_d_318_2645)">
<path d="M29.9003 21.75L29.8621 21.5827L29.7517 21.424L29.5734 21.2823L29.3379 21.163L29.0535 21.0735L28.7373 21.0181L28.4041 21L28.0731 21.0181L27.7569 21.0735L27.4725 21.163L27.237 21.2823L27.0587 21.424L26.9484 21.5827L26.9102 21.75L26.9484 21.9173L27.0587 22.076L27.237 22.2177L27.4725 22.337L27.7569 22.4254L28.0731 22.4819L28.4041 22.5L28.7373 22.4819L29.0535 22.4254L29.3379 22.337L29.5734 22.2177L29.7517 22.076L29.8621 21.9173L29.9003 21.75Z" fill="#4E5A63"/>
</g>
<defs>
<filter id="filter0_d_318_2645" x="29.7743" y="19.437" width="12.2125" height="1.75208" filterUnits="userSpaceOnUse" color-interpolation-filters="sRGB">
<feFlood flood-opacity="0" result="BackgroundImageFix"/>
<feColorMatrix in="SourceAlpha" type="matrix" values="0 0 0 0 0 0 0 0 0 0 0 0 0 0 0 0 0 0 127 0" result="hardAlpha"/>
<feOffset dy="0.0630208"/>
<feGaussianBlur stdDeviation="0.0630208"/>
<feComposite in2="hardAlpha" operator="out"/>
<feColorMatrix type="matrix" values="0 0 0 0 0 0 0 0 0 0 0 0 0 0 0 0 0 0 0.25 0"/>
<feBlend mode="normal" in2="BackgroundImageFix" result="effect1_dropShadow_318_2645"/>
<feBlend mode="normal" in="SourceGraphic" in2="effect1_dropShadow_318_2645" result="shape"/>
</filter>
<filter id="filter1_d_318_2645" x="26.7841" y="20.937" width="3.24218" height="1.75208" filterUnits="userSpaceOnUse" color-interpolation-filters="sRGB">
<feFlood flood-opacity="0" result="BackgroundImageFix"/>
<feColorMatrix in="SourceAlpha" type="matrix" values="0 0 0 0 0 0 0 0 0 0 0 0 0 0 0 0 0 0 127 0" result="hardAlpha"/>
<feOffset dy="0.0630208"/>
<feGaussianBlur stdDeviation="0.0630208"/>
<feComposite in2="hardAlpha" operator="out"/>
<feColorMatrix type="matrix" values="0 0 0 0 0 0 0 0 0 0 0 0 0 0 0 0 0 0 0.25 0"/>
<feBlend mode="normal" in2="BackgroundImageFix" result="effect1_dropShadow_318_2645"/>
<feBlend mode="normal" in="SourceGraphic" in2="effect1_dropShadow_318_2645" result="shape"/>
</filter>
<linearGradient id="paint0_linear_318_2645" x1="28.4059" y1="24" x2="28.4059" y2="27" gradientUnits="userSpaceOnUse">
<stop stop-color="#687988"/>
<stop offset="0.4" stop-color="#728391"/>
<stop offset="0.5" stop-color="#5B6976"/>
<stop offset="0.9" stop-color="#596773"/>
<stop offset="1" stop-color="#4E5B64"/>
</linearGradient>
<radialGradient id="paint1_radial_318_2645" cx="0" cy="0" r="1" gradientUnits="userSpaceOnUse" gradientTransform="translate(28.4059 23.5601) rotate(89.7746) scale(1.92361 9.25325)">
<stop/>
<stop offset="0.5"/>
<stop offset="0.751667" stop-opacity="0.25"/>
<stop offset="1" stop-opacity="0"/>
</radialGradient>
<linearGradient id="paint2_linear_318_2645" x1="32.9449" y1="12.5327" x2="30.0419" y2="14.108" gradientUnits="userSpaceOnUse">
<stop offset="0.05" stop-color="#6C7C89"/>
<stop offset="0.15" stop-color="#768693"/>
<stop offset="0.65" stop-color="#5E6C78"/>
<stop offset="1" stop-color="#606F7B"/>
</linearGradient>
<linearGradient id="paint3_linear_318_2645" x1="28.4867" y1="3.53267" x2="25.0964" y2="6.29242" gradientUnits="userSpaceOnUse">
<stop offset="0.05" stop-color="#6C7C89"/>
<stop offset="0.20173" stop-color="#768693"/>
<stop offset="0.65" stop-color="#5E6C78"/>
<stop offset="1" stop-color="#606F7B"/>
</linearGradient>
<linearGradient id="paint4_linear_318_2645" x1="30.6479" y1="16.5" x2="30.6479" y2="16.5001" gradientUnits="userSpaceOnUse">
<stop stop-color="#D2D7DA"/>
<stop offset="1" stop-color="#929CA5"/>
</linearGradient>
<radialGradient id="paint5_radial_318_2645" cx="0" cy="0" r="1" gradientUnits="userSpaceOnUse" gradientTransform="translate(33.6649 16.4739) rotate(91.0032) scale(1.52633 1.52128)">
<stop stop-color="#D2D7DA"/>
<stop offset="0.371667" stop-color="#A8B1B8"/>
<stop offset="0.726667" stop-color="#73818C"/>
<stop offset="1" stop-color="#84909A"/>
</radialGradient>
<linearGradient id="paint6_linear_318_2645" x1="30.4636" y1="19.5" x2="30.4636" y2="19.5001" gradientUnits="userSpaceOnUse">
<stop stop-color="#73818C"/>
<stop offset="1" stop-color="#929CA5"/>
</linearGradient>
<linearGradient id="paint7_linear_318_2645" x1="30.4636" y1="19.5002" x2="30.4636" y2="19.5001" gradientUnits="userSpaceOnUse">
<stop stop-color="#D2D7DA"/>
<stop offset="1" stop-color="#A8B1B8"/>
</linearGradient>
<linearGradient id="paint8_linear_318_2645" x1="30.6479" y1="18" x2="30.6479" y2="19.5" gradientUnits="userSpaceOnUse">
<stop stop-color="#84909A"/>
<stop offset="1" stop-color="#929CA5"/>
</linearGradient>
<linearGradient id="paint9_linear_318_2645" x1="31.9597" y1="19.5" x2="31.9597" y2="19.5001" gradientUnits="userSpaceOnUse">
<stop stop-color="#73818C"/>
<stop offset="1" stop-color="#929CA5"/>
</linearGradient>
<linearGradient id="paint10_linear_318_2645" x1="31.9597" y1="19.5002" x2="31.9597" y2="19.5001" gradientUnits="userSpaceOnUse">
<stop stop-color="#D2D7DA"/>
<stop offset="1" stop-color="#A8B1B8"/>
</linearGradient>
<linearGradient id="paint11_linear_318_2645" x1="33.6381" y1="18" x2="33.6381" y2="19.5" gradientUnits="userSpaceOnUse">
<stop stop-color="#73818C"/>
<stop offset="0.616667" stop-color="#929CA5"/>
</linearGradient>
<linearGradient id="paint12_linear_318_2645" x1="39.6188" y1="16.5" x2="39.6188" y2="16.5001" gradientUnits="userSpaceOnUse">
<stop stop-color="#7E8B95"/>
<stop offset="1" stop-color="#475057"/>
</linearGradient>
<radialGradient id="paint13_radial_318_2645" cx="0" cy="0" r="1" gradientUnits="userSpaceOnUse" gradientTransform="translate(38.1512 16.4739) rotate(91.0032) scale(1.52633 1.52128)">
<stop stop-color="#7E8B95"/>
<stop offset="0.371667" stop-color="#5A646D"/>
<stop offset="0.726667" stop-color="#394046"/>
<stop offset="1" stop-color="#40484F"/>
</radialGradient>
<linearGradient id="paint14_linear_318_2645" x1="39.4345" y1="19.5" x2="39.4345" y2="19.5001" gradientUnits="userSpaceOnUse">
<stop stop-color="#394046"/>
<stop offset="1" stop-color="#475057"/>
</linearGradient>
<linearGradient id="paint15_linear_318_2645" x1="39.4345" y1="19.5002" x2="39.4345" y2="19.5001" gradientUnits="userSpaceOnUse">
<stop stop-color="#7E8B95"/>
<stop offset="1" stop-color="#5A646D"/>
</linearGradient>
<linearGradient id="paint16_linear_318_2645" x1="39.6188" y1="18" x2="39.6188" y2="19.5" gradientUnits="userSpaceOnUse">
<stop stop-color="#40484F"/>
<stop offset="1" stop-color="#475057"/>
</linearGradient>
<linearGradient id="paint17_linear_318_2645" x1="37.9402" y1="19.5" x2="37.9402" y2="19.5001" gradientUnits="userSpaceOnUse">
<stop stop-color="#394046"/>
<stop offset="1" stop-color="#475057"/>
</linearGradient>
<linearGradient id="paint18_linear_318_2645" x1="37.9402" y1="19.5002" x2="37.9402" y2="19.5001" gradientUnits="userSpaceOnUse">
<stop stop-color="#7E8B95"/>
<stop offset="1" stop-color="#5A646D"/>
</linearGradient>
<linearGradient id="paint19_linear_318_2645" x1="38.1245" y1="18" x2="38.1245" y2="19.5" gradientUnits="userSpaceOnUse">
<stop stop-color="#394046"/>
<stop offset="0.616667" stop-color="#475057"/>
</linearGradient>
<radialGradient id="paint20_radial_318_2645" cx="0" cy="0" r="1" gradientUnits="userSpaceOnUse" gradientTransform="translate(32.7654 8.7656) rotate(-180) scale(8.86216 9.44817)">
<stop/>
<stop offset="0.8"/>
<stop offset="0.9" stop-opacity="0.25"/>
<stop offset="1" stop-opacity="0"/>
</radialGradient>
<radialGradient id="paint21_radial_318_2645" cx="0" cy="0" r="1" gradientUnits="userSpaceOnUse" gradientTransform="translate(32.6897 8.80721) rotate(180) scale(8.81237 9.15075)">
<stop/>
<stop offset="0.8"/>
<stop offset="0.9" stop-opacity="0.25"/>
<stop offset="1" stop-opacity="0"/>
</radialGradient>
<linearGradient id="paint22_linear_318_2645" x1="133.806" y1="3" x2="133.806" y2="30" gradientUnits="userSpaceOnUse">
<stop stop-color="#7E8F9D"/>
<stop offset="0.485" stop-color="#728391"/>
<stop offset="1" stop-color="#627280"/>
</linearGradient>
<linearGradient id="paint23_linear_318_2645" x1="133.806" y1="3" x2="133.806" y2="30" gradientUnits="userSpaceOnUse">
<stop stop-color="#7E8F9D"/>
<stop offset="0.485" stop-color="#728391"/>
<stop offset="1" stop-color="#627280"/>
</linearGradient>
<linearGradient id="paint24_linear_318_2645" x1="133.806" y1="3" x2="133.806" y2="30" gradientUnits="userSpaceOnUse">
<stop stop-color="#7E8F9D"/>
<stop offset="0.49" stop-color="#728391"/>
<stop offset="1" stop-color="#627280"/>
</linearGradient>
<linearGradient id="paint25_linear_318_2645" x1="133.806" y1="3" x2="133.806" y2="30" gradientUnits="userSpaceOnUse">
<stop stop-color="#7E8F9D"/>
<stop offset="0.49" stop-color="#728391"/>
<stop offset="1" stop-color="#627280"/>
</linearGradient>
<linearGradient id="paint26_linear_318_2645" x1="32.066" y1="7.73468" x2="28.3618" y2="9.9365" gradientUnits="userSpaceOnUse">
<stop stop-color="#55636D"/>
<stop offset="0.1" stop-color="#5F6C78"/>
<stop offset="0.6" stop-color="#3F4850"/>
<stop offset="1" stop-color="#444D56"/>
</linearGradient>
<linearGradient id="paint27_linear_318_2645" x1="35.8806" y1="19.5" x2="35.8806" y2="21" gradientUnits="userSpaceOnUse">
<stop stop-color="#5D6C79"/>
<stop offset="0.4" stop-color="#637482"/>
<stop offset="0.5" stop-color="#505C68"/>
<stop offset="0.9" stop-color="#4E5A64"/>
<stop offset="1" stop-color="#434E56"/>
</linearGradient>
<radialGradient id="paint28_radial_318_2645" cx="0" cy="0" r="1" gradientUnits="userSpaceOnUse" gradientTransform="translate(31.8945 18.7137) rotate(90) scale(1.11829 3.31112)">
<stop/>
<stop offset="0.5"/>
<stop offset="0.751667" stop-opacity="0.25"/>
<stop offset="1" stop-opacity="0"/>
</radialGradient>
<radialGradient id="paint29_radial_318_2645" cx="0" cy="0" r="1" gradientUnits="userSpaceOnUse" gradientTransform="translate(39.6967 18.7137) rotate(90) scale(1.11829 3.3438)">
<stop/>
<stop offset="0.5"/>
<stop offset="0.75" stop-opacity="0.25"/>
<stop offset="1" stop-opacity="0"/>
</radialGradient>
</defs>
</svg>
