<svg width="20" height="20" viewBox="0 0 20 20" fill="none" xmlns="http://www.w3.org/2000/svg">
<g clip-path="url(#clip0_318_2689)">
<path d="M10.7257 12.5628L8.60898 10.4712L8.63398 10.4462C10.084 8.82949 11.1173 6.97116 11.7257 5.00449H14.1673V3.33366H8.33398V1.66699H6.66732V3.33366H0.833984V4.99199H10.1423C9.57982 6.60033 8.70065 8.12533 7.50065 9.45866C6.72565 8.59616 6.08398 7.65866 5.57565 6.66699H3.90898C4.51732 8.02533 5.35065 9.30866 6.39232 10.467L2.15482 14.6545L3.33398 15.8337L7.50065 11.667L10.0923 14.2587L10.7257 12.5628ZM15.4173 8.33366H13.7507L10.0007 18.3337H11.6673L12.6048 15.8337H16.5632L17.5007 18.3337H19.1673L15.4173 8.33366ZM13.2298 14.167L14.584 10.5545L15.9382 14.167H13.2298Z" fill="white" fill-opacity="0.5"/>
</g>
<defs>
<clipPath id="clip0_318_2689">
<rect width="20" height="20" fill="white"/>
</clipPath>
</defs>
</svg>
