<svg width="19" height="19" viewBox="0 0 19 19" fill="none" xmlns="http://www.w3.org/2000/svg">
<path fill-rule="evenodd" clip-rule="evenodd" d="M5.71885 7.25032C5.85915 7.10304 6.04935 7.02031 6.24765 7.02031C6.44596 7.02031 6.63615 7.10304 6.77646 7.25032L9.49034 10.1026L12.2042 7.25032C12.2727 7.17305 12.3553 7.11107 12.4471 7.06809C12.5389 7.0251 12.638 7.00199 12.7385 7.00012C12.839 6.99826 12.9388 7.01768 13.0319 7.05724C13.1251 7.0968 13.2098 7.15567 13.2808 7.23036C13.3519 7.30504 13.4079 7.394 13.4455 7.49193C13.4832 7.58986 13.5017 7.69476 13.4999 7.80036C13.4981 7.90596 13.4761 8.01011 13.4352 8.10658C13.3943 8.20306 13.3353 8.28988 13.2618 8.36189L10.0191 11.77C9.87884 11.9173 9.68864 12 9.49034 12C9.29203 12 9.10184 11.9173 8.96153 11.77L5.71885 8.36189C5.57871 8.21442 5.5 8.01452 5.5 7.8061C5.5 7.59768 5.57871 7.39779 5.71885 7.25032Z" fill="white" fill-opacity="0.5"/>
</svg>
