<svg width="24" height="24" viewBox="0 0 24 24" fill="none" xmlns="http://www.w3.org/2000/svg">
<path fill-rule="evenodd" clip-rule="evenodd" d="M8.21995 10.22C8.36058 10.0796 8.5512 10.0007 8.74995 10.0007C8.9487 10.0007 9.13933 10.0796 9.27995 10.22L12 12.94L14.72 10.22C14.7886 10.1463 14.8714 10.0872 14.9634 10.0462C15.0554 10.0052 15.1547 9.98319 15.2554 9.98141C15.3561 9.97963 15.4562 9.99816 15.5495 10.0359C15.6429 10.0736 15.7278 10.1297 15.799 10.201C15.8702 10.2722 15.9264 10.357 15.9641 10.4504C16.0018 10.5438 16.0203 10.6438 16.0185 10.7445C16.0168 10.8452 15.9947 10.9445 15.9537 11.0365C15.9127 11.1285 15.8536 11.2113 15.78 11.28L12.53 14.53C12.3893 14.6705 12.1987 14.7493 12 14.7493C11.8012 14.7493 11.6106 14.6705 11.47 14.53L8.21995 11.28C8.0795 11.1394 8.00061 10.9488 8.00061 10.75C8.00061 10.5513 8.0795 10.3606 8.21995 10.22Z" fill="white" fill-opacity="0.5"/>
</svg>
